<?xml version="1.0" encoding="utf-8"?>
<svg id="svg2" viewBox="0 0 100 100" xmlns="http://www.w3.org/2000/svg">
  <desc>Source: openclipart.org/detail/209545</desc>
  <title>Demo - Cherry</title>
  <path style="fill: none; stroke: rgb(0, 0, 0);" d="M 50.708 66.465 C 50.708 60.602 51.664 53.736 49.67 48.121 C 48.159 43.868 44.446 41.205 43.356 36.592 C 42.188 31.652 43.474 26.467 42.74 21.521"/>
  <path style="fill: none; stroke: rgb(0, 0, 0);" d="M 51.293 62.128 C 51.293 58.815 51.916 55.005 51.253 51.798 C 50.288 47.122 47.74 43.947 47.942 38.863 C 48.09 35.128 50.617 31.565 51.742 28.053 C 52.554 25.517 52.283 22.541 52.283 19.909"/>
  <path style="fill: none; stroke: rgb(0, 0, 0);" d="M 48.999 33.105 C 48.999 30.501 49.626 27.106 48.971 24.613 C 48.74 23.734 47.27 23.177 46.831 22.303 C 45.933 20.513 45.981 18.633 45.423 16.786"/>
  <path style="fill: none; stroke: rgb(0, 0, 0);" d="M 49.826 46.169 C 49.826 46.605 49.826 45.298 49.826 44.862 C 49.826 44.137 49.826 43.411 49.826 42.685 C 49.826 40.06 51.149 38.998 53.107 37.247 C 56.459 34.249 60.995 32.902 64.262 29.844 C 66.559 27.695 67.024 24.242 69.02 21.987"/>
  <path style="fill: none; stroke: rgb(0, 0, 0);" d="M 56.609 35.452 C 57.864 34.924 60.383 35.399 61.642 35.399 C 65.207 35.399 68.853 35.311 72.399 34.968 C 72.768 34.933 76.541 33.282 75.847 32.565"/>
  <path style="fill: none; stroke: rgb(0, 0, 0);" d="M 52.32 56.651 C 50.133 54.635 54.452 50.829 55.733 50.029 C 61.407 46.483 71.619 47.035 74.961 40.352"/>
  <path style="fill: none; stroke: rgb(0, 0, 0);" d="M 60.599 48.196 C 57.583 48.196 58.367 41.684 58.149 39.909 C 58.067 39.247 57.19 38.829 56.889 38.287"/>
  <path style="fill: none; stroke: rgb(0, 0, 0);" d="M 51.24 58.589 C 48.958 56.307 46.959 53.749 44.599 51.537 C 39.602 46.854 33.609 43.25 30.724 36.742 C 28.846 32.507 29.471 27.934 28.705 23.536"/>
  <path style="fill: none; stroke: rgb(0, 0, 0);" d="M 34.873 43.378 C 34.873 38.258 36.783 33.388 37.537 28.237 C 37.835 26.2 38.825 23.022 37.286 21.377"/>
  <path style="fill: none; stroke: rgb(232, 65, 76);" d="M 70.656 20.311 C 70.999 20.311 70.712 21.608 70.787 21.935 C 70.797 21.98 71.776 22.449 71.391 22.713 C 71.069 22.934 69.792 22.489 69.483 22.364 C 69.409 22.334 69.315 22.09 69.426 22.09"/>
  <path style="fill: none; stroke: rgb(232, 65, 76);" d="M 67.998 22.15 C 68.037 22.234 68.776 22.568 68.942 22.664 C 69.882 23.206 70.716 23.034 71.71 23.259 C 72.188 23.367 72.949 23.777 73.206 22.981 C 73.293 22.71 73.02 22.191 72.968 21.931 C 72.817 21.174 73.096 20.245 72.719 19.54 C 72.555 19.234 71.865 19.433 71.804 19.073"/>
  <path style="fill: none; stroke: rgb(237, 60, 71);" d="M 70.276 18.843 C 69.793 18.843 69.633 17.995 69.294 17.801 C 68.741 17.485 68.197 18.007 67.732 18.089 C 67.497 18.13 67.183 18.007 66.973 18.143 C 66.894 18.195 67.149 18.231 67.207 18.307 C 67.322 18.456 67.304 18.71 67.26 18.879 C 67.084 19.558 66.758 20.111 66.62 20.815 C 66.485 21.504 66.521 22.203 66.52 22.904 C 66.52 22.95 66.484 23.502 66.524 23.514 C 66.729 23.576 67.135 23.364 67.316 23.296 C 68.007 23.038 68.483 22.942 69.203 22.942 C 69.446 22.942 69.891 23.016 70.081 22.822"/>
  <path style="fill: none; stroke: rgb(229, 64, 75);" d="M 67.546 23.586 C 68.283 23.586 69.482 23.562 70.198 23.725 C 70.499 23.793 70.625 24.258 70.85 24.435 C 71.063 24.604 72.231 24.923 72.466 24.692 C 72.54 24.62 72.627 24.326 72.694 24.235 C 72.81 24.076 73.08 23.966 73.08 23.768"/>
  <path style="fill: none; stroke: rgb(232, 65, 76);" d="M 69.835 17.795 C 70.728 17.795 71.589 17.832 72.431 18.178 C 72.642 18.265 72.853 18.343 73.071 18.411 C 73.106 18.422 73.385 18.508 73.383 18.511 C 73.22 18.731 73.528 19.279 73.592 19.466 C 73.939 20.479 74.498 21.034 74.279 22.138 C 74.196 22.558 74.114 23.003 73.612 23.003"/>
  <path style="fill: none; stroke: rgb(232, 65, 76);" d="M 66.997 23.931 C 66.997 24.407 68.672 24.68 69.016 24.77 C 69.582 24.918 69.823 25.614 70.262 25.76 C 70.568 25.861 71.207 25.697 71.516 25.631 C 71.767 25.577 72.035 25.502 72.265 25.386 C 72.573 25.23 72.365 25.001 72.505 24.837"/>
  <path style="fill: none; stroke: rgb(232, 65, 76);" d="M 66.283 23.881 C 66.345 24.008 66.29 24.308 66.29 24.441 C 66.29 24.892 66.29 25.344 66.29 25.795 C 66.29 25.989 66.259 26.318 66.432 26.463 C 66.474 26.499 66.834 26.289 66.885 26.267 C 67.336 26.074 67.623 25.821 67.97 25.479 C 68.024 25.426 68.273 25.284 68.276 25.212"/>
  <path style="fill: none; stroke: rgb(232, 65, 76);" d="M 65.99 23.868 C 65.99 23.928 65.99 23.988 65.99 24.048 C 65.99 24.888 65.922 23.502 65.921 23.337 C 65.757 23.357 65.733 22.368 65.814 22.163 C 65.934 21.857 65.537 21.635 65.517 21.308 C 65.498 21.009 66.047 20.393 66.215 20.128 C 66.295 20.002 66.353 19.797 66.478 19.703"/>
  <path style="fill: none; stroke: rgb(232, 65, 76);" d="M 68.104 26.008 C 68.56 25.925 68.992 26.093 69.432 26.046 C 69.565 26.032 69.699 25.91 69.835 25.875 C 69.982 25.838 70.2 25.917 70.299 25.81"/>
  <path style="fill: none; stroke: rgb(232, 65, 76);" d="M 72.322 25.506 C 72.78 25.578 73.259 25.455 73.715 25.452 C 73.835 25.452 74.157 25.522 74.257 25.45 C 74.411 25.341 74.524 25.024 74.555 24.846 C 74.607 24.544 74.559 24.242 74.558 23.937 C 74.558 23.549 74.607 23.213 74.521 22.832"/>
  <path style="fill: none; stroke: rgb(232, 65, 76);" d="M 67.028 18.552 C 66.641 18.552 66.086 18.446 65.71 18.563 C 65.156 18.735 64.832 19.453 64.495 19.861 C 64.42 19.951 63.757 20.565 63.78 20.659 C 63.78 20.66 63.988 20.685 64.011 20.7 C 64.18 20.81 64.297 20.984 64.388 21.161 C 64.574 21.523 64.698 21.981 64.801 22.373 C 64.919 22.824 64.807 23.106 65.31 23.106"/>
  <path style="fill: none; stroke: rgb(78, 28, 101);" d="M 52.509 17.876 C 52.443 17.876 52.378 17.876 52.312 17.876 C 51.673 17.876 52.961 18.195 52.745 17.592 C 52.655 17.341 51.636 17.648 51.751 17.938 C 51.866 18.229 52.711 17.919 52.759 17.728 C 52.843 17.386 52.025 17.547 51.998 17.757 C 51.988 17.837 52.011 17.886 52.062 17.946 C 52.386 18.327 52.358 17.646 52.302 17.671"/>
  <path style="fill: none; stroke: rgb(78, 28, 101);" d="M 51.608 17.189 C 51.557 17.114 51.6 16.875 51.6 16.784 C 51.6 16.157 52.167 15.606 52.445 15.068 C 52.553 14.858 52.644 14.555 52.831 14.396 C 52.928 14.313 53.04 14.239 53.15 14.176 C 54.027 13.682 53.701 14.739 53.564 15.122 C 53.468 15.388 53.365 15.637 53.237 15.889 C 53.093 16.175 52.882 16.743 52.679 16.978"/>
  <path style="fill: none; stroke: rgb(78, 28, 101);" d="M 52.208 17.086 C 51.975 17.086 51.595 16.562 51.477 16.376 C 51.163 15.879 51.319 15.279 51.079 14.795 C 50.926 14.485 50.739 14.047 50.481 13.814 C 50.259 13.613 50.101 13.95 50.124 14.14 C 50.159 14.417 50.389 14.778 50.473 15.064 C 50.563 15.368 50.703 15.657 50.787 15.962 C 50.922 16.45 51.202 16.797 51.418 17.231"/>
  <path style="fill: none; stroke: rgb(78, 28, 101);" d="M 51.502 17.445 C 51.225 17.445 50.838 17.132 50.593 17.022 C 50.003 16.755 49.464 16.533 48.815 16.46 C 48.659 16.442 47.999 16.347 47.942 16.586 C 47.826 17.073 48.493 16.879 48.758 16.989 C 49.52 17.307 49.918 17.703 50.734 17.837 C 50.817 17.851 51.789 17.987 51.498 17.704"/>
  <path style="fill: none; stroke: rgb(78, 28, 101);" d="M 51.301 17.794 C 51.253 17.843 50.99 17.802 50.924 17.802 C 50.627 17.802 50.29 17.759 49.998 17.822 C 49.434 17.942 48.854 18.531 48.534 18.99 C 47.965 19.807 48.922 19.232 49.294 19.245 C 49.551 19.254 49.728 19.353 50 19.3 C 50.679 19.167 51.23 18.64 51.718 18.242"/>
  <path style="fill: none; stroke: rgb(78, 28, 101);" d="M 53.126 17.157 C 53.311 17.157 53.697 16.873 53.864 16.791 C 54.381 16.54 55.229 16.197 55.825 16.35 C 56.578 16.543 55.943 17.054 55.632 17.17 C 54.808 17.478 54.002 17.715 53.117 17.715"/>
  <path style="fill: none; stroke: rgb(78, 28, 101);" d="M 52.925 17.918 C 52.923 17.914 53.137 17.902 53.172 17.91 C 53.349 17.949 53.534 18.049 53.677 18.159 C 54.108 18.491 54.458 18.992 54.76 19.44 C 54.868 19.6 54.972 19.744 55.096 19.891 C 55.099 19.894 55.288 20.082 55.25 20.097 C 55.069 20.164 54.774 20.102 54.598 20.075 C 54.377 20.041 53.948 20.077 53.755 19.955 C 53.257 19.641 52.966 18.747 52.572 18.279"/>
  <path style="fill: none; stroke: rgb(78, 28, 101);" d="M 51.203 18.244 C 51.203 18.925 51.007 20.024 51.398 20.671 C 51.486 20.815 51.687 20.878 51.808 20.988 C 51.876 21.05 51.915 21.287 51.986 21.306 C 52.043 21.321 52.127 20.854 52.166 20.789 C 52.269 20.62 52.411 20.47 52.523 20.307 C 52.869 19.805 52.725 19.312 52.725 18.725"/>
  <path style="fill: none; stroke: rgb(78, 28, 101);" d="M 51.545 18.945 C 51.292 19.293 51.635 19.681 51.758 19.881 C 51.801 19.951 51.881 20.225 52.021 20.186 C 52.053 20.176 52.069 20.017 52.106 19.985 C 52.152 19.945 52.265 19.967 52.275 19.914"/>
  <path style="fill: none; stroke: rgb(78, 28, 101);" d="M 50.53 19.453 C 50.547 19.461 50.637 20.26 50.656 20.326 C 50.709 20.516 50.758 20.708 50.814 20.897 C 50.945 21.335 51.109 21.777 51.29 22.197 C 51.31 22.242 51.414 22.574 51.51 22.553 C 51.726 22.507 52.161 21.84 52.28 21.68 C 52.462 21.434 52.636 21.172 52.732 20.879 C 52.868 20.464 52.956 20.142 52.956 19.707"/>
  <path style="fill: none; stroke: rgb(78, 28, 101);" d="M 49.845 13.13 C 49.845 14.397 49.829 15.392 50.407 16.519"/>
  <path style="fill: none; stroke: rgb(78, 28, 101);" d="M 55.843 16.055 C 55.856 16.027 56.062 16.046 56.093 16.046 C 56.297 16.046 56.898 16.016 57.018 16.173 C 57.174 16.376 56.397 16.995 56.215 17.125"/>
  <path style="fill: none; stroke: rgb(0, 0, 0);" d="M 53.516 37.096 C 53.516 35.508 54.758 34.277 55.05 32.726 C 55.46 30.541 54.483 28.679 54.577 26.486 C 54.627 25.322 55.529 24.299 55.529 23.085"/>
  <path style="fill: none; stroke: rgb(0, 0, 0);" d="M 55.9 23.794 C 55.9 24.958 55.69 26.336 55.896 27.481 C 56.134 28.801 56.688 30.076 56.459 31.458 C 56.335 32.2 55.661 32.832 55.318 33.478 C 55.027 34.026 54.718 34.569 54.477 35.141 C 54.416 35.285 54.342 35.784 54.159 35.822"/>
  <path style="fill: none; stroke: rgb(0, 0, 0);" d="M 53.667 30.383 C 53.966 29.753 53.738 28.888 53.96 28.199 C 54.269 27.244 54.731 26.489 54.87 25.462 C 54.922 25.074 55.016 24.71 55.016 24.313 C 55.016 24.16 54.959 23.714 55.016 23.855 C 55.043 23.922 55.08 24.131 55.08 24.06 C 55.08 25.476 55.174 27.131 54.716 28.485 C 54.569 28.918 53.819 29.244 53.567 29.677 C 53.187 30.327 53.252 31.471 53.103 32.192 C 52.865 33.341 52.969 34.562 52.969 35.726 C 52.969 35.785 52.97 36.841 52.831 36.841"/>
  <path style="fill: none; stroke: rgb(0, 0, 0);" d="M 59.974 48.905 C 60.086 48.787 61.076 48.844 61.202 48.829 C 62.115 48.725 62.992 48.601 63.913 48.599 C 65.926 48.595 68.188 48.981 70.159 48.579 C 71.65 48.275 72.817 47.282 74.332 47.078"/>
  <path style="fill: none; stroke: rgb(0, 0, 0);" d="M 62.217 48.733 C 63.028 48.733 63.772 48.321 64.579 48.262 C 65.692 48.181 66.818 48.288 67.926 48.149 C 69.14 47.997 70.342 47.87 71.53 47.562 C 73.179 47.134 74.643 46.632 76.36 46.54 C 76.55 46.53 76.075 46.794 75.936 46.924 C 75.715 47.132 75.257 47.166 75.085 47.372 C 74.299 48.314 73.195 48.782 71.966 48.993 C 69.504 49.417 67.338 49.697 64.833 49.788 C 63.942 49.82 62.595 50.267 61.736 49.92 C 61.247 49.723 61.348 49.152 61.037 48.832"/>
  <path style="fill: none; stroke: rgb(0, 0, 0);" d="M 45.321 40.624 C 40.553 40.624 40.846 34.438 39.485 31.325 C 39.256 30.8 39.367 29.989 39.082 29.602"/>
  <path style="fill: none; stroke: rgb(0, 0, 0);" d="M 38.949 30.922 C 38.949 32.918 38.393 36.22 39.671 38.041 C 40.865 39.742 43.5 40.525 44.642 42.073"/>
  <path style="fill: none; stroke: rgb(0, 0, 0);" d="M 39.515 29.993 C 40.889 31.367 42.167 34.258 42.742 36.102 C 43.111 37.283 42.786 39.371 43.651 40.313 C 43.984 40.676 44.423 40.616 44.81 40.809"/>
  <path style="fill: none; stroke: rgb(0, 0, 0);" d="M 42.778 40.374 C 42.86 40.753 43.529 40.58 43.886 40.733 C 44.752 41.105 45.652 41.463 46.485 41.904 C 47.048 42.203 47.693 43.496 47.584 43.39"/>
  <path style="fill: none; stroke: rgb(0, 0, 0);" d="M 60.153 48.148 C 60.212 48.081 60.056 47.546 60.044 47.442 C 59.958 46.739 59.984 46.217 59.96 45.534 C 59.942 45.002 59.887 44.472 59.882 43.94 C 59.866 42.401 59.839 40.928 59.187 39.49 C 58.769 38.566 58.054 37.84 56.961 37.918 C 56.867 37.925 57.041 38.039 56.85 38.089 C 56.85 40.6 56.47 43.575 57.119 46.007 C 57.404 47.075 58.471 47.472 58.74 48.549"/>
  <path style="fill: none; stroke: rgb(0, 0, 0);" d="M 56.851 38.701 C 56.851 38.198 56.851 37.695 56.851 37.192 C 56.851 37.029 56.879 36.817 56.839 36.658 C 56.815 36.565 56.798 36.28 56.793 36.375 C 56.764 36.907 56.888 37.379 56.917 37.891 C 56.921 37.962 56.973 38.306 56.852 38.349 C 56.638 38.426 56.549 37.33 56.549 37.156 C 56.549 37.114 56.525 36.826 56.564 36.82 C 56.803 36.788 57.452 38.373 57.376 38.175"/>
  <path style="fill: none; stroke: rgb(0, 0, 0);" d="M 43.85 46.076 C 43.85 47.373 45.279 47.9 46.042 48.718 C 46.99 49.735 47.33 51.112 48.111 52.242 C 48.601 52.95 49.479 53.446 49.674 54.283"/>
  <path style="fill: none; stroke: rgb(0, 0, 0);" d="M 52.615 59.142 C 52.615 56.345 52.414 53.445 52.615 50.652 C 52.756 48.678 53.322 46.592 53.65 44.633 C 53.862 43.366 54.047 42.094 54.254 40.826 C 54.31 40.48 54.368 39.38 54.542 39.179"/>
  <path style="fill: none; stroke: rgb(0, 0, 0);" d="M 52.242 50.185 C 52.242 47.41 51.78 44.2 52.852 41.576 C 53.205 40.712 53.494 39.795 54.05 39.035 C 54.233 38.786 54.4 38.535 54.553 38.265 C 54.629 38.132 54.712 37.731 54.785 37.867 C 54.884 38.052 54.729 38.584 54.741 38.813 C 54.791 39.739 55.057 40.654 55.106 41.592 C 55.181 43.024 55.181 44.46 55.259 45.892 C 55.363 47.799 55.729 49.86 55.077 51.71 C 54.95 52.071 54.68 52.771 54.328 52.989 C 54.107 53.125 53.896 52.973 53.696 53.225 C 53.16 53.898 52.484 55.107 52.516 55.995 C 52.165 56.127 52.353 57.081 52.353 57.409 C 52.353 58.918 52.487 60.464 52.115 61.938 C 51.993 62.421 51.327 64.457 51.245 64.276 C 51.245 61.746 51.641 58.461 50.459 56.124 C 49.875 54.968 48.524 54.557 47.609 53.713 C 47.138 53.277 46.919 52.725 46.565 52.205 C 45.814 51.1 44.985 50.112 44.312 48.952 C 43.562 47.66 43.76 46.124 43.022 44.824 C 42.938 44.676 42.577 43.699 42.316 43.721 C 42.221 43.729 42.497 44.078 42.515 44.101 C 42.866 44.585 43.323 44.974 43.759 45.379 C 44.739 46.289 45.688 47.227 46.576 48.226 C 49.014 50.967 50.656 54.196 51.045 57.85 C 51.172 59.05 51.294 60.23 51.312 61.438 C 51.317 61.776 51.653 62.953 51.263 62.708"/>
  <path style="fill: none; stroke: rgb(0, 0, 0);" d="M 48.352 35.199 C 48.352 34.784 48.405 34.431 48.568 34.041 C 48.964 33.094 49.538 32.075 50.537 31.673 C 51.004 31.485 51.552 31.561 51.992 31.343 C 52.198 31.24 52.353 30.548 52.44 30.548"/>
  <path style="fill: none; stroke: rgb(0, 0, 0);" d="M 51.242 31.17 C 51.242 30.393 51.671 29.265 52.277 28.749 C 52.498 28.561 52.77 28.538 53.013 28.391 C 53.1 28.339 53.186 28.283 53.272 28.229 C 53.329 28.194 53.425 28.044 53.434 28.11 C 53.508 28.685 53.259 29.617 53.131 30.157 C 52.939 30.962 52.841 31.952 52.307 32.631 C 51.748 33.342 51.013 33.43 50.19 33.615 C 49.82 33.698 49.483 33.886 49.108 33.951"/>
  <path style="fill: none; stroke: rgb(0, 0, 0);" d="M 48.266 37.017 C 47.507 37.017 47.078 36.32 46.755 35.717 C 46.019 34.342 45.92 33.001 45.87 31.453 C 45.852 30.871 45.87 30.142 45.506 29.663 C 45.373 29.488 45.249 29.305 45.138 29.115 C 45.09 29.032 45.042 28.766 45.012 28.857 C 44.988 28.932 45.169 29.243 45.198 29.341 C 45.308 29.711 45.293 30.125 45.319 30.508 C 45.44 32.267 45.326 34.095 46.035 35.741 C 46.3 36.356 46.646 36.832 47.083 37.339 C 47.226 37.504 47.372 37.68 47.55 37.809 C 47.631 37.867 47.905 37.886 47.806 37.889"/>
  <path style="fill: none; stroke: rgb(0, 0, 0);" d="M 45.708 29.176 C 45.708 29.316 46.27 29.6 46.364 29.664 C 46.796 29.96 47.368 30.401 47.542 30.925 C 47.736 31.506 47.575 32.356 47.575 32.958 C 47.575 34.065 47.575 35.171 47.575 36.278 C 47.575 36.705 47.698 37.341 47.555 37.752"/>
  <path style="fill: none; stroke: rgb(0, 0, 0);" d="M 46.172 29.555 C 46.153 29.598 45.879 29.202 45.833 29.145 C 45.48 28.7 45.317 28.227 45.099 27.731"/>
  <path style="fill: none; stroke: rgb(0, 0, 0);" d="M 34.886 39.42 C 34.886 38.021 35.111 36.454 34.878 35.071 C 34.651 33.72 34.127 32.561 34.122 31.156 C 34.119 30.229 34.015 29.227 34.26 28.322 C 34.351 27.989 34.437 27.663 34.502 27.324 C 34.511 27.279 34.55 26.883 34.55 26.961"/>
  <path style="fill: none; stroke: rgb(0, 0, 0);" d="M 34.523 39.373 C 34.523 39.335 34.523 39.449 34.523 39.486 C 34.523 39.6 34.523 39.714 34.523 39.828 C 34.523 40.12 34.54 40.408 34.549 40.69"/>
  <path style="fill: none; stroke: rgb(0, 0, 0);" d="M 34.248 39.24 C 34.248 38.464 33.972 37.686 33.863 36.917 C 33.671 35.57 33.341 34.167 33.302 32.808 C 33.275 31.876 33.388 30.918 33.324 29.988 C 33.286 29.431 33.144 28.859 33.209 28.294 C 33.321 27.326 34.147 26.572 34.768 25.905 C 34.922 25.74 35.302 25.262 35.528 25.243 C 35.543 25.242 35.477 26.103 35.47 26.19 C 35.42 26.756 35.376 27.324 35.328 27.891 C 35.194 29.472 35.644 31.011 35.706 32.579 C 35.736 33.334 35.978 34.233 35.778 34.976 C 35.749 35.08 35.481 35.956 35.372 35.783"/>
  <path style="fill: none; stroke: rgb(0, 0, 0);" d="M 65.58 27.595 C 65.58 27.416 65.55 27.261 65.442 27.123 C 65.439 27.12 65.352 27.019 65.344 27.028 C 65.319 27.055 65.408 27.166 65.414 27.174 C 65.545 27.377 65.691 27.571 65.842 27.759 C 65.933 27.872 65.862 27.781 65.94 27.873 C 65.96 27.897 66.03 27.944 65.999 27.946 C 65.964 27.949 65.851 27.825 65.827 27.804 C 65.691 27.69 65.56 27.558 65.445 27.423 C 65.44 27.417 65.173 27.161 65.201 27.142 C 65.253 27.108 65.406 27.194 65.452 27.216 C 65.456 27.218 65.565 27.271 65.561 27.256 C 65.529 27.121 65.41 26.937 65.324 26.825 C 65.324 26.824 65.241 26.713 65.23 26.73 C 65.145 26.866 65.326 27.208 65.38 27.335 C 65.382 27.342 65.454 27.52 65.47 27.511 C 65.486 27.501 65.347 27.321 65.336 27.305 C 65.215 27.139 65.138 26.946 65.065 26.757 C 65.06 26.746 65.014 26.597 65.014 26.597 C 65.03 26.594 65.123 26.758 65.13 26.77 C 65.239 26.942 65.314 27.113 65.395 27.299"/>
  <path style="fill: none; stroke: rgb(0, 0, 0);" d="M 65.078 29.347 C 65.36 29.31 65.535 29.384 65.796 29.418 C 65.886 29.429 65.963 29.447 66.05 29.48 C 66.056 29.482 66.158 29.54 66.157 29.541 C 66.081 29.567 65.883 29.464 65.796 29.462 C 65.467 29.454 65.138 29.462 64.81 29.462 C 64.749 29.462 64.4 29.49 64.389 29.426"/>
  <path style="fill: none; stroke: rgb(0, 0, 0);" d="M 62.996 30.922 C 62.908 30.814 62.992 30.238 62.977 30.114 C 62.966 30.023 62.954 29.933 62.941 29.843 C 62.939 29.824 62.928 29.699 62.927 29.72"/>
  <path style="fill: none; stroke: rgb(0, 0, 0);" d="M 60.272 33.082 C 60.517 33.082 60.969 33.18 61.189 33.062"/>
  <path style="fill: none; stroke: rgb(0, 0, 0);" d="M 59.266 32.733 C 59.266 32.45 59.266 32.167 59.266 31.884"/>
  <path style="fill: none; stroke: rgb(0, 0, 0);" d="M 56.396 34.993 C 56.396 34.523 56.396 34.017 56.396 33.564"/>
  <path style="fill: none; stroke: rgb(0, 0, 0);" d="M 55.484 35.911 C 55.737 35.911 55.99 36.153 56.205 36.283"/>
  <path style="fill: none; stroke: rgb(0, 0, 0);" d="M 73.81 34.72 C 73.991 34.72 74.153 34.978 74.281 35.09"/>
  <path style="fill: none; stroke: rgb(0, 0, 0);" d="M 72.654 34.395 C 72.572 34.103 72.649 33.698 72.649 33.389"/>
  <path style="fill: none; stroke: rgb(0, 0, 0);" d="M 68.671 35.794 C 69.01 35.794 69.377 36.153 69.665 36.316"/>
  <path style="fill: none; stroke: rgb(0, 0, 0);" d="M 66.88 34.961 C 67.255 34.793 67.589 34.458 68.003 34.39"/>
  <path style="fill: none; stroke: rgb(0, 0, 0);" d="M 66.584 35.572 C 66.619 35.896 66.731 36.202 66.767 36.523"/>
  <path style="fill: none; stroke: rgb(0, 0, 0);" d="M 64.444 35.123 C 64.743 34.819 65.196 34.627 65.462 34.305"/>
  <path style="fill: none; stroke: rgb(0, 0, 0);" d="M 63.106 35.815 C 63.106 36.001 63.424 36.132 63.424 36.343"/>
  <path style="fill: none; stroke: rgb(0, 0, 0);" d="M 60.549 34.96 C 60.845 34.96 61.081 34.789 61.378 34.787"/>
  <path style="fill: none; stroke: rgb(0, 0, 0);" d="M 58.738 35.627 C 59.025 35.627 59.285 35.623 59.562 35.697"/>
  <path style="fill: none; stroke: rgb(0, 0, 0);" d="M 29.425 32.93 C 28.963 32.93 28.452 32.993 28.002 32.873"/>
  <path style="fill: none; stroke: rgb(0, 0, 0);" d="M 30.359 35.913 C 30.462 35.89 30.387 35.134 30.436 34.977 C 30.643 34.315 31.036 33.167 31.48 32.691"/>
  <path style="fill: none; stroke: rgb(0, 0, 0);" d="M 29.153 28.656 C 28.93 28.383 28.489 27.808 28.154 27.631"/>
  <path style="fill: none; stroke: rgb(0, 0, 0);" d="M 29.217 26.774 C 29.324 26.774 29.419 26.709 29.528 26.709"/>
  <path style="fill: none; stroke: rgb(0, 0, 0);" d="M 29.331 26.506 C 29.467 26.506 29.527 26.231 29.643 26.231"/>
  <path style="fill: none; stroke: rgb(0, 0, 0);" d="M 31.684 38.099 C 31.684 37.617 31.684 37.136 31.684 36.655"/>
  <path style="fill: none; stroke: rgb(0, 0, 0);" d="M 31.974 39.953 C 31.692 39.886 31.48 39.625 31.197 39.531"/>
  <path style="fill: none; stroke: rgb(0, 0, 0);" d="M 30.075 36.438 C 29.783 36.438 29.479 36.034 29.247 35.877"/>
  <path style="fill: none; stroke: rgb(0, 0, 0);" d="M 29.534 31.014 C 29.618 30.759 29.995 30.635 30.049 30.399"/>
  <path style="fill: none; stroke: rgb(0, 0, 0);" d="M 28.608 25.526 C 28.41 25.427 28.255 25.169 28.114 25"/>
  <path style="fill: none; stroke: rgb(0, 0, 0);" d="M 38.498 23.997 C 38.498 23.937 38.612 23.834 38.64 23.782 C 38.762 23.555 38.759 23.276 38.931 23.072"/>
  <path style="fill: none; stroke: rgb(0, 0, 0);" d="M 37.733 25.552 C 37.589 25.266 37.42 24.889 37.236 24.633"/>
  <path style="fill: none; stroke: rgb(0, 0, 0);" d="M 37.92 27.864 C 37.934 27.657 38.045 27.455 38.191 27.307"/>
  <path style="fill: none; stroke: rgb(0, 0, 0);" d="M 36.953 29.402 C 36.953 28.825 36.834 28.25 36.833 27.666"/>
  <path style="fill: none; stroke: rgb(0, 0, 0);" d="M 36.78 33.389 C 36.865 33.154 37.143 33.026 37.211 32.781"/>
  <path style="fill: none; stroke: rgb(78, 28, 101);" d="M 47.125 21.934 C 47.125 21.731 47.125 21.527 47.125 21.324 C 47.125 21.218 47.109 21.097 47.133 20.992 C 47.163 20.862 47.251 20.743 47.27 20.611"/>
  <path style="fill: none; stroke: rgb(0, 0, 0);" d="M 48.881 28.209 C 48.76 27.854 48.883 27.297 48.863 26.924 C 48.826 26.231 48.567 25.601 48.17 25.034"/>
  <path style="fill: none; stroke: rgb(0, 0, 0);" d="M 48.741 28.062 C 48.741 28.277 48.752 28.468 48.793 28.678"/>
  <path style="fill: none; stroke: rgb(78, 28, 101);" d="M 49.702 26.045 C 49.702 25.217 49.729 24.386 49.733 23.561"/>
  <path style="fill: none; stroke: rgb(8, 8, 8);" d="M 45.55 18.962 C 45.241 18.962 44.846 18.416 44.64 18.196"/>
  <path style="fill: none; stroke: rgb(0, 0, 0);" d="M 42.569 29.768 C 42.569 29.685 42.45 29.546 42.404 29.479 C 42.28 29.297 42.157 29.124 42.119 28.903"/>
  <path style="fill: none; stroke: rgb(6, 6, 6);" d="M 43.06 26.391 C 43.124 26.224 43.248 26.097 43.403 26.012"/>
  <path style="fill: none; stroke: rgb(11, 10, 11);" d="M 43.464 25.931 C 43.464 25.771 43.536 25.616 43.537 25.456"/>
  <path style="fill: none; stroke: rgb(0, 0, 0);" d="M 42.689 24.972 C 42.606 24.923 42.574 24.807 42.499 24.745 C 42.326 24.601 42.101 24.531 41.891 24.46"/>
  <path style="fill: none; stroke: rgb(9, 8, 9);" d="M 43.149 23.057 C 43.204 22.882 43.327 22.729 43.438 22.585"/>
  <path style="fill: none; stroke: rgb(237, 60, 71);" d="M 66.911 26.58 C 67.346 26.756 67.929 26.472 68.38 26.609 C 69.293 26.886 73.435 28.248 73.534 26.028"/>
  <path style="fill: none; stroke: rgb(237, 60, 71);" d="M 64.401 23.085 C 64.531 23.146 64.418 23.372 64.418 23.516 C 64.418 23.856 64.418 24.197 64.418 24.537 C 64.418 26.079 64.331 27.299 63.963 28.793 C 63.917 28.977 63.4 30.434 63.583 30.567 C 63.827 30.746 64.732 30.736 65.062 30.81 C 67.702 31.401 69.414 30.724 71.699 29.494 C 72.166 29.243 72.967 29.578 73.335 29.221 C 74.261 28.32 74.413 26.327 74.782 25.111"/>
  <path style="fill: none; stroke: rgb(237, 60, 71);" d="M 64.616 26.44 C 65.414 26.44 65.698 27.709 66.216 28.057 C 67.622 29.002 69.292 29.082 70.856 28.672 C 71.254 28.568 72.09 28.54 72.284 28.121"/>
  <path style="fill: none; stroke: rgb(237, 60, 71);" d="M 64.553 19.41 C 63.492 19.41 63.992 19.464 63.795 20.439 C 63.7 20.908 63.53 21.373 63.385 21.828 C 63.087 22.768 62.934 23.8 62.424 24.657 C 62.301 24.863 61.702 25.363 61.76 25.641 C 61.791 25.788 62.255 26.164 62.347 26.344 C 62.701 27.032 63.417 28.419 63.453 29.224"/>
  <path style="fill: none; stroke: rgb(237, 60, 71);" d="M 64.13 19.294 C 64.13 18.541 65.841 18.102 66.362 17.891 C 66.959 17.649 67.501 17.27 68.096 17.031 C 69.271 16.559 70.999 16.973 72.208 17.131 C 72.604 17.183 73.388 16.965 73.625 17.399 C 73.914 17.929 73.41 19.083 73.164 19.577"/>
  <path style="fill: none; stroke: rgb(237, 60, 71);" d="M 73.646 17.699 C 74.665 17.699 75.684 17.699 76.702 17.699 C 76.846 17.699 77.547 17.59 77.671 17.699 C 77.785 17.799 77.468 18.321 77.441 18.414 C 77.264 19.01 77.359 19.711 77.358 20.324 C 77.357 22.211 78.167 25.698 76.616 27.075 C 76.028 27.597 75.048 27.497 74.567 27.882"/>
  <path style="fill: none; stroke: rgb(237, 60, 71);" d="M 77.829 19.955 C 77.829 20.561 78.064 20.907 78.364 21.412"/>
  <path style="fill: none; stroke: rgb(237, 60, 71);" d="M 74.649 20.228 C 74.649 21.176 75.26 21.906 75.443 22.784 C 75.578 23.428 75.132 23.801 75.034 24.377 C 74.983 24.671 75.063 25.428 74.849 25.621"/>
  <path style="fill: none; stroke: rgb(237, 60, 71);" d="M 73.49 29.39 C 73.936 29.39 74.382 29.39 74.828 29.39 C 75.286 29.39 76.116 29.552 76.549 29.349 C 77.684 28.815 77.5 27.181 77.594 26.18 C 77.659 25.478 77.665 24.778 77.665 24.074"/>
  <path style="fill: none; stroke: rgb(237, 60, 71);" d="M 64.558 28.179 C 64.558 28.01 64.746 28.475 64.89 28.564 C 65.146 28.722 65.513 28.661 65.799 28.661 C 66.897 28.661 68.125 28.687 69.198 28.907"/>
  <path style="fill: none; stroke: rgb(78, 28, 101);" d="M 53.486 16.38 C 54.619 16.38 55.702 16.037 56.849 16.037 C 57.233 16.037 57.916 15.978 58.247 16.239 C 58.498 16.435 57.604 17.312 57.53 17.399 C 57.407 17.543 57.336 17.639 57.194 17.767 C 56.238 18.621 54.995 18.777 53.804 19.104 C 53.27 19.251 52.676 19.509 52.116 19.531"/>
  <path style="fill: none; stroke: rgb(78, 28, 101);" d="M 53.886 16.065 C 53.886 15.271 54.192 14.54 54.345 13.766 C 54.424 13.364 54.515 12.962 54.564 12.555 C 54.591 12.332 54.612 12.109 54.638 11.886 C 54.667 11.64 54.775 11.116 54.674 10.875 C 54.568 10.624 54.266 10.952 54.221 11.041 C 54.211 11.06 54.117 11.26 54.109 11.276 C 54.042 11.415 53.986 11.555 53.924 11.696 C 53.613 12.402 53.303 13.109 53.019 13.826 C 52.869 14.205 52.763 14.773 52.46 15.069"/>
  <path style="fill: none; stroke: rgb(78, 28, 101);" d="M 51.527 15.514 C 51.527 15.056 51.604 14.537 51.5 14.091 C 51.257 13.043 50.554 11.885 49.89 11.053 C 49.588 10.677 49.304 10.291 49.032 9.893 C 49.025 9.882 48.842 9.537 48.774 9.628 C 48.659 9.781 48.793 10.18 48.845 10.313 C 49.031 10.79 49.191 11.28 49.319 11.776 C 49.776 13.553 49.858 15.417 50.425 17.168"/>
  <path style="fill: none; stroke: rgb(78, 28, 101);" d="M 49.947 16.728 C 49.947 16.351 49.9 16.049 49.802 15.682 C 49.713 15.349 49.599 15.024 49.496 14.695 C 49.228 13.84 49.063 12.781 48.149 12.379 C 48.036 12.329 47.714 12.155 47.59 12.188 C 47.526 12.204 47.666 12.296 47.703 12.35 C 47.751 12.421 47.858 12.583 47.895 12.648 C 48.108 13.024 48.265 13.443 48.429 13.843 C 48.594 14.244 48.743 14.649 48.897 15.054 C 49.145 15.7 49.375 16.681 49.885 17.19"/>
  <path style="fill: none; stroke: rgb(78, 28, 101);" d="M 49.306 16.484 C 49.281 16.541 48.594 16.492 48.541 16.492 C 47.612 16.492 46.682 16.492 45.753 16.492 C 45.407 16.492 45.062 16.492 44.716 16.492 C 44.7 16.492 44.369 16.503 44.391 16.548 C 44.41 16.586 44.69 16.679 44.728 16.699 C 45.109 16.905 45.469 17.148 45.849 17.356 C 47.346 18.179 49.541 18.58 51.236 18.155"/>
  <path style="fill: none; stroke: rgb(78, 28, 101);" d="M 50.058 18.717 C 49.585 18.745 49.104 19.052 48.693 19.249 C 47.518 19.813 46.516 20.551 45.887 21.722 C 45.699 22.073 45.563 22.454 45.408 22.82 C 45.393 22.854 45.231 23.13 45.27 23.173 C 45.361 23.274 45.513 23.049 45.63 22.98 C 46.152 22.673 46.666 22.334 47.15 21.971 C 47.549 21.672 47.825 21.437 48.199 21.118 C 48.781 20.623 49.356 20.118 49.919 19.601 C 50.859 18.74 51.644 17.763 52.534 16.869"/>
  <path style="fill: none; stroke: rgb(84, 19, 89);" d="M 50.462 19.509 C 50.462 20.393 50.172 21.208 49.98 22.063 C 49.748 23.102 49.565 24.177 49.52 25.242 C 49.502 25.672 49.492 26.101 49.491 26.532 C 49.491 26.602 49.442 26.946 49.496 26.996 C 49.544 27.04 49.585 26.897 49.616 26.839 C 49.712 26.662 49.812 26.488 49.909 26.311 C 50.171 25.833 50.443 25.362 50.698 24.881 C 51.938 22.545 53.123 20.061 53.506 17.423"/>
  <path style="fill: none; stroke: rgb(78, 28, 101);" d="M 51.758 19.563 C 52.142 20.616 52.677 21.617 53.098 22.657 C 53.337 23.25 53.589 23.834 53.803 24.436 C 53.929 24.791 54.048 25.142 54.183 25.493 C 54.246 25.655 54.297 25.822 54.361 25.983 C 54.365 25.992 54.508 26.314 54.519 26.34 C 54.779 26.912 54.731 26.397 54.694 26.053 C 54.653 25.678 54.583 25.33 54.485 24.966 C 54.049 23.337 53.558 21.77 53.315 20.095 C 53.237 19.557 53.268 18.425 52.802 18.01"/>
  <path style="fill: none; stroke: rgb(78, 28, 101);" d="M 52.799 19.933 C 53.496 19.88 54.323 20.578 54.869 20.912 C 56.281 21.778 57.622 22.799 59.115 23.528 C 59.508 23.72 59.89 23.838 60.315 23.963 C 60.402 23.989 60.655 24.019 60.735 24.029 C 61.372 24.112 61.494 24.18 61.07 23.689 C 60.985 23.59 60.901 23.488 60.816 23.388 C 60.261 22.742 60.664 23.228 60.061 22.491 C 59.526 21.837 59.604 21.922 59.039 21.262 C 58.375 20.486 57.662 19.752 56.905 19.066 C 55.802 18.067 54.673 17.094 53.559 16.107"/>
  <path style="fill: none; stroke: rgb(226, 65, 65);" d="M 68.049 22.405 C 67.998 22.251 68.043 22.013 68.043 21.851 C 68.043 21.293 67.97 20.755 68.383 20.315 C 68.652 20.029 69.034 19.896 69.285 19.575 C 69.434 19.383 69.51 19.146 69.574 18.914 C 69.589 18.859 69.61 18.692 69.677 18.671 C 69.89 18.601 70.207 18.826 70.409 18.872 C 70.794 18.958 71.205 18.883 71.582 18.993 C 71.7 19.028 71.799 19.144 71.899 19.179"/>
  <path style="fill: none; stroke: rgb(212, 59, 59);" d="M 70.788 20.789 C 70.723 20.711 70.774 20.374 70.774 20.267 C 70.774 19.79 70.853 19.343 70.851 18.864"/>
  <path style="fill: none; stroke: rgb(221, 63, 63);" d="M 69.324 22.489 C 69.324 22.174 69.212 21.64 69.34 21.349 C 69.471 21.052 69.793 20.895 70.043 20.719 C 70.237 20.582 70.377 20.404 70.631 20.402"/>
  <path style="fill: none; stroke: rgb(242, 158, 76);" d="M 72.368 40.481 C 71.225 40.481 69.619 40.155 68.702 40.912 C 67.93 41.549 67.285 42.266 66.686 43.066 C 65.964 44.032 65.327 45.108 65.061 46.292 C 65.042 46.377 64.864 47.312 64.999 47.376 C 66.493 48.081 70.603 46.513 71.515 45.279 C 72.01 44.611 71.781 43.141 71.781 42.356 C 72.567 42.619 72.072 43.408 72.39 44.097 C 72.77 44.922 73.525 45.44 74.277 45.887 C 74.366 45.94 75.369 46.575 75.502 46.448 C 76.382 45.608 75.376 42.31 74.792 41.743"/>
  <path style="fill: none; stroke: rgb(242, 158, 76);" d="M 71.571 44.381 C 71.571 46.55 72.077 46.889 73.756 48.345 C 74.035 48.587 75.019 49.58 75.485 49.292 C 75.709 49.155 75.62 47.983 75.622 47.708 C 75.633 46.047 76.112 44.427 76.112 42.764"/>
  <path style="fill: none; stroke: rgb(242, 158, 76);" d="M 71.395 39.695 C 71.239 40.017 69.027 37.952 68.663 37.817 C 67.09 37.232 64.922 37.408 64.696 39.324 C 64.413 41.716 68.861 41.93 70.337 41.93 C 70.971 41.93 71.605 41.93 72.24 41.93 C 72.517 41.93 73.098 42.406 73.048 42.133 C 73.005 41.898 72.648 41.435 72.887 41.435 C 72.887 45.774 80.747 44.124 82.932 43.148 C 83.639 42.832 84.307 42.49 84.97 42.09 C 85.53 41.751 87.639 40.732 87.792 40.024 C 88.057 38.797 86.163 38.16 85.317 38.033 C 82.628 37.632 79.42 37.872 77.029 39.241 C 76.781 39.383 75.252 40.21 75.245 40.641 C 77.915 39.097 78.953 37.585 79.804 34.225 C 80.047 33.266 80.27 31.102 79.486 30.291 C 78.976 29.765 78.159 29.914 77.495 29.919 C 74.535 29.942 74.323 31.923 74.323 34.495 C 74.323 36.233 74.345 37.972 74.323 39.71 C 74.577 39.439 74.381 37.571 74.348 37.196 C 74.12 34.65 72.832 31.601 69.47 32.325 C 67.639 32.72 68.042 35.714 68.464 36.881 C 69.438 39.578 71.817 40.494 74.334 40.494 C 74.388 40.55 74.205 40.38 74.201 40.302 C 74.185 39.983 74.699 40.987 74.478 41.217 C 74.217 41.489 73.159 41.79 72.96 41.297 C 72.511 40.18 74.916 39.404 75.209 40.09 C 75.601 41.009 74.146 43.039 73.154 42.172 C 71.727 40.925 74.731 37.987 75.887 39.244 C 76.051 39.422 75.977 39.791 75.975 40.011 C 75.95 42.708 72.494 39.167 74.689 39.167"/>
  <path style="fill: none; stroke: rgb(242, 158, 76);" d="M 75.327 38.812 C 75.327 37.981 75.301 37.195 75.634 36.41 C 75.96 35.643 76.427 35.572 77.169 35.377 C 77.963 35.169 79.771 34.886 80.574 35.364 C 82.192 36.327 82.239 38.587 80.599 39.423 C 79.715 39.873 78.672 39.99 77.745 40.34 C 76.564 40.785 75.505 41.039 74.246 41.039"/>
  <path style="fill: none; stroke: rgb(242, 158, 76);" d="M 75.446 47.661 C 77.239 47.661 81.491 47.214 79.118 44.525"/>
  <path style="fill: none; stroke: rgb(240, 148, 93);" d="M 74.409 39.143 C 74.409 38.381 72.631 35.921 71.617 36.742 C 71.324 36.98 71.279 38.446 71.615 38.703 C 71.724 38.786 73.116 39.089 73.097 39.096 C 72.158 39.444 69.891 38.923 69.59 40.471 C 69.163 42.658 72.986 42.282 72.986 41.067 C 72.978 42.633 73.166 42.712 74.61 43.53 C 74.859 43.67 75.523 44.151 75.839 43.965 C 76.826 43.385 76.048 41.738 75.547 41.237"/>
  <path style="fill: none; stroke: rgb(240, 148, 93);" d="M 75.963 39.392 C 76.225 39.392 78.23 39.214 78.316 39.47 C 78.511 40.047 78.043 40.87 77.433 40.967 C 77.34 40.981 76.582 40.978 76.795 40.686 C 77.306 39.987 79.076 41.729 78.821 42.39 C 78.509 43.199 75.733 43.082 75.089 43.088 C 74.887 43.09 73.492 43.127 73.647 42.937"/>
  <path style="fill: none; stroke: rgb(240, 148, 93);" d="M 74.737 38.105 C 74.64 38.013 74.713 37.577 74.713 37.452 C 74.713 36.485 75.66 36.312 76.588 36.874 C 77.034 37.144 76.841 38.52 76.34 38.52"/>
  <path style="fill: none; stroke: rgb(240, 148, 93);" d="M 73.922 37.412 C 73.922 37.53 73.939 37.158 73.869 37.064 C 73.696 36.83 73.526 36.622 73.373 36.366 C 73.025 35.783 71.863 34.469 71.058 34.821 C 70.463 35.082 70.641 36.815 70.804 37.306 C 70.871 37.507 71.287 38.199 71.287 38.194"/>
  <path style="fill: none; stroke: rgb(240, 148, 93);" d="M 71.078 38.72 C 70.361 38.72 67.905 38.291 67.62 39.354 C 67.298 40.556 68.686 41.399 69.544 41.855 C 69.998 42.096 70.686 42.384 70.811 42.007"/>
  <path style="fill: none; stroke: rgb(240, 148, 93);" d="M 69.905 42.191 C 69.852 42.311 69.123 42.285 69.005 42.314 C 68.591 42.414 66.395 42.955 66.808 43.701 C 67.806 45.507 70.336 45.189 71.925 44.701 C 72.26 44.599 73.833 44.077 73.839 43.668"/>
  <path style="fill: none; stroke: rgb(240, 148, 93);" d="M 74.968 36.14 C 74.968 35.795 74.822 34.975 75.128 34.724 C 75.743 34.22 78.597 35.011 79.023 35.405 C 80.099 36.399 78.643 38.245 77.802 38.765"/>
  <path style="fill: none; stroke: rgb(240, 148, 93);" d="M 77.184 37.11 C 77.57 37.379 78.66 37.114 79.152 37.277 C 80.91 37.859 80.113 39.331 79.027 39.89 C 79.317 39.864 80.47 39.679 80.659 39.881 C 82.152 41.473 79.339 43.652 77.878 42.769"/>
  <path style="fill: none; stroke: rgb(240, 148, 93);" d="M 77.986 43.739 C 77.986 46.174 77.448 47.289 74.934 47.289 C 74.374 47.289 73.769 47.385 73.28 47.057 C 72.44 46.494 72.595 45.281 72.177 44.466"/>
  <path style="fill: none; stroke: rgb(91, 142, 239);" d="M 42.619 21.815 C 42.619 20.685 42.177 19.773 41.731 18.761 C 41.265 17.703 40.872 16.628 40.355 15.589 C 39.993 14.861 39.603 14.145 39.284 13.396 C 39.198 13.193 38.811 12.875 39.016 12.791 C 39.202 12.715 39.907 12.85 40.13 12.85 C 40.413 12.85 40.696 12.85 40.978 12.85 C 42.555 12.85 41.807 13.847 42.018 15.124 C 42.184 16.127 42.371 17.113 42.482 18.125 C 42.567 18.906 42.647 19.686 42.648 20.472 C 42.648 20.736 42.648 21 42.648 21.264 C 42.648 21.346 42.686 21.619 42.686 21.537 C 42.459 21.537 42.17 21.327 41.947 21.26 C 40.984 20.972 40.116 20.63 39.231 20.141 C 38.858 19.935 38.479 19.738 38.127 19.498 C 38.008 19.417 37.885 19.342 37.765 19.262 C 37.715 19.229 37.558 19.144 37.616 19.162 C 37.75 19.203 37.922 18.976 37.996 18.916 C 38.316 18.658 38.618 18.324 38.887 18.012 C 38.925 17.967 39.185 17.611 39.268 17.654 C 39.313 17.678 39.382 17.837 39.414 17.877 C 39.551 18.049 39.708 18.21 39.861 18.367 C 40.531 19.053 41.03 19.84 41.625 20.581 C 41.794 20.792 41.935 21.066 42.14 21.245"/>
  <path style="fill: none; stroke: rgb(91, 142, 239);" d="M 42.734 21.328 C 42.734 20.509 41.944 19.578 41.493 18.971 C 40.726 17.94 39.895 16.816 39.297 15.673 C 38.901 14.915 38.404 14.089 38.09 13.298 C 37.981 13.021 37.796 12.764 37.702 12.485 C 37.691 12.452 37.543 12.046 37.531 12.061 C 37.406 12.219 37.322 12.797 37.176 13.035 C 36.805 13.641 36.325 14.168 35.952 14.775 C 35.847 14.946 35.55 15.23 35.527 15.439 C 35.516 15.539 36.503 16.151 36.617 16.238 C 37.681 17.043 38.638 18.041 39.547 19.017 C 40.259 19.782 41.034 20.295 41.828 20.956 C 42.099 21.182 42.358 21.421 42.626 21.652 C 42.799 21.802 42.888 21.991 42.888 21.908"/>
  <path style="fill: none; stroke: rgb(91, 142, 239);" d="M 41.56 21.466 C 40.863 21.466 40.165 21.466 39.468 21.466 C 38.845 21.466 38.22 21.495 37.598 21.504 C 37.562 21.505 37.07 21.494 37.055 21.529 C 37.02 21.611 37.184 21.79 37.213 21.864 C 37.324 22.151 37.308 22.53 37.328 22.833 C 37.331 22.889 37.328 23.691 37.335 23.69 C 37.375 23.689 37.752 23.385 37.816 23.357 C 38.517 23.051 39.202 22.648 39.948 22.467 C 40.628 22.302 40.904 22.199 41.425 21.802 C 41.478 21.762 41.814 21.549 41.746 21.467"/>
  <path style="fill: none; stroke: rgb(91, 142, 239);" d="M 41.324 22.207 C 41.324 23.396 41.255 24.67 40.657 25.739 C 40.438 26.132 40.112 26.488 39.872 26.877 C 39.823 26.957 39.544 27.276 39.574 27.383 C 39.578 27.399 40.154 27.425 40.187 27.432 C 40.582 27.514 40.963 27.697 41.342 27.832 C 41.614 27.928 41.919 28.005 42.172 28.146 C 42.219 28.172 42.624 28.39 42.627 28.371 C 42.698 27.913 42.431 27.057 42.378 26.595 C 42.299 25.907 42.435 25.197 42.334 24.511 C 42.21 23.658 41.831 22.796 41.76 21.946"/>
  <path style="fill: none; stroke: rgb(91, 142, 239);" d="M 39.763 22.954 C 39.763 23.344 39.249 23.597 39.287 23.995 C 39.308 24.219 39.696 24.189 39.873 24.327 C 40.584 24.88 40.24 24.893 40.785 24.127 C 40.87 24.009 41.082 23.849 41.093 23.694"/>
  <path style="fill: none; stroke: rgb(91, 142, 239);" d="M 42.519 19.937 C 42.519 17.953 43.227 16.326 43.778 14.439 C 43.89 14.056 43.963 13.674 43.968 13.276 C 43.969 13.191 43.91 12.819 43.988 12.749 C 44.044 12.699 43.973 12.905 44.002 12.974 C 44.082 13.169 44.221 13.317 44.364 13.469 C 44.488 13.601 45.482 14.477 45.393 14.686 C 44.626 16.488 43.187 18.088 42.301 19.86 C 42.097 20.032 42.628 19.539 42.637 19.533 C 42.898 19.362 43.186 19.21 43.459 19.054 C 44.406 18.515 45.495 18.368 46.5 17.972 C 46.812 17.849 47.117 17.695 47.404 17.522 C 47.532 17.445 47.937 17.304 47.788 17.292 C 47.714 17.286 47.708 17.874 47.708 17.937 C 47.704 18.568 47.706 19.199 47.706 19.83 C 47.706 19.871 47.818 20.527 47.79 20.534 C 46.371 20.866 44.825 21.158 43.384 21.387 C 42.863 21.47 42.345 21.548 41.826 21.644 C 41.771 21.655 41.32 21.782 41.32 21.696"/>
  <path style="fill: none; stroke: rgb(91, 142, 239);" d="M 42.276 20.049 C 42.276 20.303 43.112 20.849 43.296 21.05 C 43.972 21.788 44.575 22.704 45.381 23.304 C 45.706 23.546 46.59 23.934 46.725 24.278 C 46.743 24.322 46.433 24.471 46.411 24.486 C 46.067 24.71 45.789 24.937 45.425 25.099 C 45.026 25.277 44.768 25.848 44.37 25.969 C 44.366 25.97 44.194 25.586 44.174 25.537 C 44.057 25.259 43.885 25.054 43.687 24.821 C 43.046 24.067 42.525 23.233 41.805 22.555"/>
  <path style="fill: none; stroke: rgb(91, 142, 239);" d="M 42.808 19.671 C 43.243 19.671 44.154 19.518 44.386 19.927 C 44.508 20.141 44.196 20.247 44.058 20.325 C 43.617 20.571 43.094 20.914 42.576 20.949"/>
  <path style="fill: none; stroke: rgb(248, 131, 207);" d="M 37.905 23.965 C 37.905 23.445 38.017 22.428 37.715 21.945 C 37.38 21.411 36.003 21.124 35.672 21.838 C 34.874 23.564 36.79 25.461 36.653 27.19 C 36.574 28.181 35.893 29.414 35.331 30.196 C 34.992 30.667 34.418 31.426 34.881 32.004"/>
  <path style="fill: none; stroke: rgb(248, 131, 207);" d="M 37.938 22.591 C 37.938 22.274 37.821 21.717 37.938 21.416 C 38.026 21.191 38.871 21.183 39.046 21.176 C 40.142 21.133 40.908 21.208 41.054 22.448 C 41.239 24.032 40.702 25.773 39.98 27.172 C 39.635 27.841 39.029 28.405 38.913 29.179 C 38.715 30.496 39.483 31.527 40.046 32.657"/>
  <path style="fill: none; stroke: rgb(248, 131, 207);" d="M 38.167 23.326 C 38.123 23.233 38.181 23.531 38.181 23.634 C 38.181 23.872 38.181 24.111 38.181 24.35 C 38.181 25.096 38.262 25.884 38.067 26.611 C 38.012 26.815 37.769 27.127 37.817 27.355 C 37.907 27.783 38.309 28.215 38.509 28.6 C 39.115 29.769 39.293 31.412 38.411 32.449 C 38.13 32.779 37.772 33.092 37.401 33.315"/>
  <path style="fill: none; stroke: rgb(248, 131, 207);" d="M 37.821 19.907 C 37.821 18.262 34.624 18.714 34.145 19.716 C 33.996 20.03 34.077 20.5 34.076 20.838 C 34.075 21.774 34.141 22.591 34.425 23.49 C 34.637 24.159 35.165 24.936 35.165 25.656"/>
  <path style="fill: none; stroke: rgb(248, 131, 207);" d="M 45.287 31.647 C 44.43 31.135 44.746 29.603 44.746 28.791 C 44.746 26.467 45.092 23.709 44.03 21.536 C 43.764 20.993 42.928 19.735 42.329 19.472 C 41.904 19.285 41.08 19.423 40.627 19.448 C 40.042 19.481 39.462 19.765 39.088 20.222 C 38.979 20.354 38.884 20.506 38.807 20.658 C 38.768 20.735 38.849 20.926 38.763 20.914 C 38.667 20.901 38.446 20.766 38.478 20.857 C 38.273 20.758 38.553 19.057 38.575 18.959 C 38.965 17.284 41.25 18.027 41.823 19.282 C 43.69 23.37 40.481 27.12 41.101 31.204"/>
  <path style="fill: none; stroke: rgb(248, 131, 207);" d="M 37.694 21.301 C 37.567 20.996 37.825 20.576 37.488 20.332 C 36.521 19.635 35.645 21.232 35.703 21.963 C 35.748 22.531 36.374 23.16 36.596 23.686 C 37.191 25.097 37.63 26.667 37.671 28.199 C 37.681 28.605 37.827 30.042 37.318 30.255"/>
  <path style="fill: none; stroke: rgb(248, 131, 207);" d="M 38.362 22.943 C 38.362 22.731 39.008 22.745 39.171 22.795 C 39.457 22.885 39.598 23.321 39.606 23.573 C 39.63 24.276 39.732 25.136 39.564 25.822 C 39.419 26.414 39.021 26.946 38.817 27.524 C 38.66 27.968 38.531 28.435 38.45 28.899 C 38.415 29.101 38.389 29.716 38.382 29.511"/>
  <path style="fill: none; stroke: rgb(248, 131, 207);" d="M 37.455 20.876 C 36.591 20.876 35.716 20.144 34.765 20.569 C 34.064 20.881 33.929 21.765 33.754 22.396 C 33.218 24.332 33.301 26.145 33.301 28.144 C 33.301 28.919 32.879 29.537 32.875 30.278"/>
  <path style="fill: none; stroke: rgb(29, 38, 19);" d="M 27.99 23.807 C 26.194 23.807 24.416 23.243 22.877 22.3 C 22.401 22.008 21.934 21.717 21.487 21.382 C 21.258 21.21 20.521 20.921 20.801 20.861 C 21.37 20.741 23.077 21.842 23.559 22.065 C 25.8 23.101 28.498 24.943 30.859 25.638 C 31.054 25.695 30.5 25.446 30.336 25.326 C 30.215 25.238 29.672 24.77 29.598 24.71 C 28.922 24.156 28.289 23.617 27.702 22.964 C 26.571 21.706 25.747 20.281 24.813 18.89 C 24.726 18.761 23.989 17.44 23.775 17.476 C 23.652 17.496 24.428 18.764 24.437 18.778 C 25.076 19.794 25.773 20.783 26.374 21.822 C 26.588 22.19 26.79 22.568 26.997 22.94 C 27.091 23.11 27.226 23.637 27.278 23.45 C 27.747 21.779 26.92 19.401 26.91 17.701 C 26.906 17.021 26.906 16.341 26.906 15.661 C 26.905 15.374 26.907 14.512 26.904 14.799 C 26.863 17.971 26.947 22.435 28.174 25.39 C 28.264 25.607 28.175 24.919 28.175 24.684 C 28.175 24.115 28.175 23.546 28.175 22.977 C 28.175 20.88 27.879 18.547 28.428 16.495 C 28.483 16.288 29.001 14.881 29.093 14.894 C 29.183 14.906 29.111 17.398 29.111 17.599 C 29.111 18.486 29.133 19.376 29.081 20.262 C 29.05 20.797 29.021 20.905 28.935 21.417 C 28.877 21.76 28.826 22.106 28.77 22.449 C 28.419 24.589 28.845 21.83 29.541 21.043 C 29.993 20.532 30.531 20.066 31.044 19.619 C 31.773 18.983 32.78 17.941 33.67 17.507 C 33.892 17.399 33.488 17.971 33.347 18.173 C 32.874 18.85 32.282 19.411 31.707 20 C 30.598 21.138 29.409 22.155 28.22 23.205 C 28.012 23.389 26.926 24.052 26.907 24.374 C 26.878 24.854 27.858 24.226 28.337 24.193 C 29.278 24.129 30.215 24.019 31.156 23.948 C 31.629 23.912 33.049 23.851 32.575 23.82 C 31.969 23.779 31.18 24.304 30.608 24.475 C 30.027 24.648 27.887 24.601 27.509 24.979 C 27.476 25.012 28.116 25.686 28.137 25.711 C 28.548 26.185 28.891 26.693 29.258 27.2 C 30.313 28.656 31.074 29.916 31.074 31.766 C 31.074 32.154 30.786 31.045 30.648 30.683 C 30.458 30.182 30.254 29.694 30.066 29.192 C 29.326 27.227 28.784 25.187 28.029 23.233 C 27.992 23.137 27.508 21.356 27.46 21.361 C 26.828 21.429 27.409 22.634 27.3 23.259 C 26.896 25.569 26.484 27.854 26.15 30.18 C 26.138 30.267 25.694 32.455 25.599 32.4 C 25.112 32.118 25.536 31.276 25.536 30.713 C 25.536 28.564 25.915 26.663 26.42 24.577 C 26.564 23.98 26.693 23.374 26.799 22.77 C 26.85 22.482 26.943 21.614 26.945 21.906 C 26.957 23.615 24.498 25.079 23.248 25.906 C 23.205 25.934 22.232 26.795 22.138 26.755 C 22.137 26.755 23.619 25.969 23.739 25.916 C 24.513 25.578 25.293 25.256 26.093 24.987 C 26.55 24.833 27.386 23.855 27.386 24.338 C 27.386 25.924 24.68 28.622 23.821 29.7 C 23.387 30.245 22.894 30.747 22.423 31.259 C 22.202 31.5 21.454 31.894 21.767 31.987 C 22.426 32.183 24.416 28.703 24.565 28.494 C 25.261 27.517 25.519 27.122 26.193 26.208 C 27.691 24.179 25.692 26.942 27.193 24.858 C 27.481 24.458 27.777 24.063 28.062 23.66 C 28.221 23.436 28.469 22.719 28.533 22.985 C 28.935 24.652 26.86 27.804 27.907 29.389 C 28.064 29.627 27.91 28.819 27.91 28.534 C 27.91 27.726 27.866 26.967 27.75 26.163 C 27.511 24.502 27.106 22.878 26.841 21.222 C 26.772 20.791 26.704 20.362 26.655 19.929 C 26.633 19.732 26.539 19.146 26.586 19.338 C 26.83 20.335 27.534 21.293 28.017 22.183 C 28.664 23.376 33.212 27.585 30.508 24.073 C 30.282 23.779 30.058 23.485 29.827 23.195 C 29.612 22.926 28.973 22.158 28.706 21.844 C 28.605 21.726 26.726 19.487 26.582 19.618 C 26.225 19.941 27.231 20.358 27.656 20.585 C 29.085 21.347 30.605 21.971 32.058 22.692 C 32.437 22.88 32.818 23.063 33.193 23.258 C 33.35 23.339 33.79 23.454 33.639 23.545 C 32.399 24.297 28.873 22.336 27.77 23.353 C 27.739 23.381 29.423 24.811 29.525 24.903 C 30.655 25.919 31.793 26.928 32.998 27.854 C 33.413 28.173 33.856 28.467 34.301 28.744 C 34.507 28.872 35.086 29.255 34.963 29.046 C 34.49 28.242 31.867 27.689 31.067 26.979 C 30.492 26.468 29.94 25.874 29.446 25.282 C 29.212 25.002 28.804 24.027 28.804 24.393 C 28.804 26.151 31.024 28.628 31.838 30.214 C 31.994 30.518 32.617 31.992 32.417 32.231 C 32.346 32.317 31.082 30.829 31.031 30.77 C 29.786 29.303 28.79 27.61 27.834 25.944 C 27.553 25.453 27.326 24.942 27.1 24.425 C 26.983 24.159 26.927 23.3 26.868 23.585 C 26.75 24.152 26.864 24.848 26.863 25.424 C 26.861 26.453 25.72 34.767 25.72 30.056 C 25.72 29.726 25.711 29.395 25.72 29.064 C 25.749 27.899 25.745 28.175 25.94 27.062 C 26.146 25.881 26.777 24.124 26.635 22.924 C 26.579 22.441 26.052 23.706 25.719 24.06 C 24.886 24.944 23.999 25.769 23.159 26.646 C 23.072 26.737 21.53 28.251 21.512 28.209 C 20.965 26.888 25.25 26.072 25.913 25.612 C 26.227 25.393 25.146 25.61 24.763 25.61 C 23.93 25.61 23.097 25.61 22.265 25.61 C 20.147 25.61 17.839 25.858 15.812 25.118 C 15.481 24.998 14.479 24.722 14.359 24.299 C 14.118 23.452 16.699 23.485 17.184 23.474 C 19.832 23.417 22.291 23.774 24.907 24.074 C 25.245 24.113 27.12 24.057 27.347 24.356 C 27.474 24.523 26.926 24.405 26.718 24.374 C 26.409 24.328 25.563 24.068 25.354 24.008 C 24.355 23.725 22.157 23.123 21.597 22.978 C 20.054 22.578 18.511 22.373 16.945 22.116 C 16.94 22.115 15.644 21.883 15.489 21.856 C 15.294 21.822 14.84 21.916 14.91 21.731 C 14.955 21.613 16.863 21.753 16.954 21.761 C 19.387 21.955 21.716 22.895 23.985 23.728 C 24.075 23.761 26.522 24.675 26.523 24.673 C 26.533 24.65 25.141 23.338 25.107 23.299 C 24.394 22.486 23.785 21.585 23.239 20.654 C 22.096 18.701 21.486 14.693 19.675 13.23 C 19.369 12.983 20.028 13.939 20.273 14.246 C 20.692 14.771 21.153 15.283 21.61 15.773 C 22.908 17.165 24.314 18.448 25.537 19.909 C 25.856 20.291 26.271 20.723 26.452 21.202 C 26.474 21.258 26.822 22.116 26.835 22.071 C 27.112 21.124 26.586 19.784 26.458 18.88 C 26.16 16.776 26.178 14.636 25.977 12.523 C 25.95 12.237 25.958 13.1 26.002 13.383 C 26.065 13.787 26.217 14.341 26.328 14.719 C 26.875 16.597 27.514 18.436 28.009 20.33 C 28.157 20.897 28.299 21.45 28.417 22.023 C 28.486 22.357 28.623 23.344 28.687 23.009 C 29.073 20.973 29.545 19.514 30.695 17.638 C 30.764 17.526 31.654 16.027 31.793 16.136 C 32.26 16.501 31.658 19.624 31.574 20.074 C 31.424 20.882 31.295 22.667 30.64 23.305 C 30.389 23.549 28.902 23.643 28.6 23.723 C 26.47 24.286 24.37 24.733 22.257 25.377 C 20.864 25.801 19.878 25.215 18.488 25.211 C 18.044 25.21 17.53 25.142 17.095 25.225 C 16.859 25.271 16.158 25.394 16.398 25.407 C 17.87 25.485 19.957 24.309 21.473 24.03 C 22.546 23.832 23.61 23.623 24.689 23.47 C 25.093 23.413 25.931 23.291 26.372 23.241 C 29.111 22.933 28.985 22.827 26.395 23.047 C 24.224 23.231 22.11 23.819 19.957 24.131 C 19.82 24.151 16.844 24.303 16.79 24.451 C 16.751 24.559 19.807 24.582 19.903 24.582 C 21.918 24.582 23.845 24.684 25.843 24.964 C 26.379 25.039 26.905 25.121 27.436 25.23 C 27.701 25.284 28.434 25.263 28.221 25.43 C 26.352 26.897 24.007 28.373 21.982 29.76 C 21.64 29.994 19.995 30.686 19.983 31.189 C 19.975 31.542 20.126 30.49 20.287 30.176 C 20.556 29.651 20.921 29.215 21.287 28.754 C 22.201 27.607 23.144 26.497 24.133 25.414 C 24.49 25.023 24.855 24.657 25.238 24.294 C 25.441 24.1 26.082 23.797 25.823 23.689 C 25.404 23.516 24.996 24.209 24.822 24.452 C 23.937 25.695 23.03 26.883 21.98 27.995 C 21.488 28.517 20.95 28.968 20.425 29.453 C 20.421 29.456 19.398 30.352 19.431 30.369 C 19.957 30.646 21.053 29.783 21.398 29.56 C 22.806 28.65 24.078 27.524 25.458 26.566 C 25.986 26.2 26.85 24.921 27.079 25.522 C 27.356 26.25 27.113 27.48 27.231 28.264 C 27.34 28.985 27.486 29.7 27.589 30.423 C 27.747 31.526 28.267 32.694 28.342 33.784 C 28.367 34.135 28.294 33.082 28.294 32.73 C 28.294 31.968 28.252 31.185 28.328 30.426 C 28.55 28.213 29.645 26.028 29.743 23.821 C 29.752 23.609 29.833 24.241 29.935 24.427 C 30.128 24.777 30.365 25.108 30.586 25.442 C 31.374 26.63 31.989 27.94 33.118 28.856 C 33.182 28.908 33.885 29.58 34.043 29.515 C 34.233 29.436 33.762 29.212 33.61 29.074 C 32.833 28.366 33.659 29.1 32.699 28.3 C 31.458 27.264 30.264 26.154 28.959 25.198 C 28.826 25.101 27.882 24.544 27.891 24.342 C 27.897 24.185 29.701 24.269 29.812 24.269 C 31.362 24.268 33.326 24.805 34.813 24.605 C 36.449 24.386 37.929 24.199 39.608 24.198 C 39.724 24.198 41.001 24.104 40.997 24.279 C 40.994 24.424 39.622 24.314 39.601 24.312 C 38.22 24.148 36.873 24.042 35.478 24.089 C 33.781 24.146 32.163 24.709 30.508 25.031 C 30.389 25.054 28.75 25.478 28.65 25.338 C 28.45 25.057 29.686 24.113 29.893 23.935 C 31.045 22.947 32.343 22.218 33.703 21.55 C 33.972 21.418 35.331 21.062 35.457 20.745 C 35.481 20.684 33.844 20.953 33.822 20.958 C 32.301 21.333 30.443 23.045 29.029 23.149 C 28.883 23.159 29.668 22.56 29.726 22.526 C 30.213 22.245 30.691 21.951 31.173 21.661 C 31.346 21.557 31.902 21.396 31.702 21.365 C 30.698 21.213 28.174 24.106 27.222 24.575 C 27.172 24.6 25.836 25.341 25.59 25.06 C 24.933 24.31 24.665 23.088 24.099 22.246 C 23.206 20.916 21.796 19.982 20.612 18.936 C 19.818 18.233 19.123 17.442 18.292 16.779 C 17.95 16.507 16.851 15.943 17.289 15.932 C 18.11 15.911 19.376 17.544 19.913 18.02 C 22.367 20.191 25.371 21.985 27.401 24.552"/>
  <path style="fill: none; stroke: rgb(0, 0, 0);" d="M 43.165 50.988 C 43.165 52.457 45.712 54.99 46.576 56.238 C 47.97 58.251 48.438 60.976 48.566 63.359 C 48.623 64.406 48.516 71.109 47.865 70.609"/>
  <path style="fill: none; stroke: rgb(0, 0, 0);" d="M 42.799 51.047 C 42.776 51.003 42.817 50.569 42.832 50.575 C 42.854 50.584 42.866 50.726 42.866 50.754 C 42.866 50.981 43.038 51.615 43.038 51.057 C 43.038 50.995 43.038 50.933 43.038 50.872"/>
  <path style="fill: none; stroke: rgb(0, 0, 0);" d="M 46.939 54.52 C 46.939 55.821 47.734 57.268 47.865 58.599 C 48.133 61.324 48.154 63.881 48.736 66.551 C 48.796 66.829 49.371 69.996 48.885 70.003"/>
  <path style="fill: none; stroke: rgb(0, 0, 0);" d="M 49.429 55.996 C 49.134 56.268 49.407 58.231 49.407 58.633 C 49.407 61 49.085 62.433 48.089 64.593 C 47.872 65.063 47.506 66.7 47.25 66.549"/>
  <path style="fill: none; stroke: rgb(0, 0, 0);" d="M 50.594 58.328 C 50.594 61.544 51.009 64.674 49.425 67.601 C 49.24 67.944 48.313 69.805 47.902 69.701"/>
  <path style="fill: none; stroke: rgb(0, 0, 0);" d="M 47.893 68.542 C 47.89 68.565 47.864 69.279 47.998 69.15 C 48.033 69.116 47.548 68.125 47.539 68.101 C 47.248 67.333 46.904 66.211 46.904 65.385"/>
  <path style="fill: none; stroke: rgb(0, 0, 0);" d="M 29.545 35.094 C 29.545 45.408 43.549 48.45 47.936 55.963 C 52.531 63.834 48.942 73.974 48.863 82.458"/>
  <path style="fill: none; stroke: rgb(0, 0, 0);" d="M 41.971 49.959 C 41.971 57.692 44.416 65.301 48.013 72.08 C 49.127 74.178 50.026 76.312 50.691 78.595 C 50.918 79.374 51.354 82.381 51.354 82.187"/>
  <path style="fill: none; stroke: rgb(0, 0, 0);" d="M 44.39 54.714 C 44.905 60.82 43.834 67.012 45.174 73.062 C 46.178 77.596 48.989 81.566 51.303 85.432"/>
  <path style="fill: none; stroke: rgb(0, 0, 0);" d="M 66.688 48.614 C 65.765 48.92 64.765 49.95 64.073 50.542 C 63.373 51.14 61.137 52.527 60.833 53.54 C 59.889 56.689 60.803 60.265 59.718 63.614 C 58.07 68.699 54.438 72.824 51.859 77.415 C 50.998 78.949 50.256 80.476 49.681 82.138 C 49.461 82.774 49.304 83.424 49.095 84.064 C 48.999 84.358 48.578 85.185 48.742 84.923 C 48.874 84.711 49.28 84.085 49.141 84.291 C 49.904 84.147 50.54 80.104 50.703 79.39 C 51.927 74.027 52.772 68.554 52.772 63.068 C 52.772 59.412 52.695 56.058 55.001 52.992 C 55.672 52.1 59.273 49.989 59.273 48.97"/>
  <path style="fill: none; stroke: rgb(0, 0, 0);" d="M 58.34 51.057 C 58.34 54.545 58.865 58.514 58.302 61.951 C 57.743 65.362 54.569 68.126 53.209 71.242 C 51.427 75.324 50.769 80.383 49.605 84.701"/>
  <path style="fill: none; stroke: rgb(0, 0, 0);" d="M 35.044 45.294 C 35.603 45.294 35.842 48.634 35.907 49.004 C 36.634 53.123 36.803 57.216 37.35 61.363 C 37.651 63.644 40.504 66.169 41.812 67.876 C 44.353 71.193 46.478 75.028 48.387 78.734"/>
  <path style="fill: none; stroke: rgb(104, 148, 101);" d="M 18.036 36.636 C 19.063 36.636 20.32 38.754 20.967 39.41 C 23.641 42.121 25.983 44.925 28.214 48.035 C 34.101 56.242 38.399 64.933 42.866 73.975 C 45.549 79.403 49.468 85.889 49.759 92.16 C 49.776 92.514 49.76 91.45 49.76 91.095 C 49.76 90.283 49.733 89.466 49.8 88.656 C 50.003 86.162 51.19 83.693 52.398 81.542 C 56.254 74.674 59.049 67.831 65.639 63.114 C 71.038 59.249 77.761 58.452 83.306 54.879 C 84.83 53.897 87.91 51.886 88.533 49.952 C 88.569 49.838 87.655 50.131 87.478 50.146 C 86.609 50.22 85.747 50.232 84.873 50.232 C 82.382 50.232 79.882 50.17 77.392 50.232 C 69.572 50.427 61.558 51.65 53.73 50.637 C 47.187 49.791 39.783 43.848 34.867 39.82 C 32.789 38.118 31.714 35.926 29.258 34.516 C 25.664 32.452 21.209 33.165 17.346 32.075 C 17.015 31.981 13.94 30.26 13.954 30.246 C 14.075 30.13 14.689 31.188 14.722 31.238 C 15.272 32.079 15.939 32.811 16.589 33.573 C 19.041 36.443 21.264 39.136 23.609 41.979"/>
  <path style="fill: none; stroke: rgb(104, 148, 101);" d="M 16.465 34.383 C 16.723 33.777 21.885 36.563 20.136 35.476"/>
  <path style="fill: none; stroke: rgb(104, 148, 101);" d="M 21.347 34.826 C 21.347 36.164 22.591 37.786 23.216 38.89 C 25.289 42.555 27.604 45.256 28.585 49.313"/>
  <path style="fill: none; stroke: rgb(104, 148, 101);" d="M 22.634 34.399 C 23.11 36.889 24.97 39.053 26.227 41.175 C 28.332 44.729 30.282 48.323 31.968 52.077 C 32.204 52.602 31.495 51.022 31.181 50.539 C 30.588 49.631 29.928 48.771 29.391 47.825 C 27.809 45.038 26.41 40.333 26.41 36.999 C 26.41 36.725 26.599 37.516 26.735 37.753 C 27.975 39.908 26.387 37.03 27.923 39.906 C 28.888 41.712 29.134 42.145 30.223 44.018 C 33.223 49.18 36.571 55.071 40.518 59.609 C 41 60.164 39.823 58.312 39.504 57.65 C 38.79 56.17 38.07 54.674 37.511 53.127 C 36.564 50.506 36.039 47.765 35.169 45.121 C 35.11 44.941 34.575 42.675 34.238 42.618 C 33.692 42.527 34.26 43.74 34.43 44.266 C 35.148 46.49 36.065 48.684 36.972 50.837 C 38.745 55.041 40.646 59.194 42.57 63.331 C 43.214 64.716 43.905 66.071 44.588 67.436 C 44.949 68.158 45.317 70.156 45.816 69.523 C 46.441 68.73 44.224 65.221 43.96 64.658 C 42.088 60.663 40.221 56.669 38.154 52.771 C 37.519 51.573 36.323 48.513 35.025 47.803 C 34.272 47.391 35.602 49.422 35.963 50.201 C 36.841 52.099 37.632 54.08 38.385 56.028 C 40.38 61.189 42.302 66.454 45.146 71.224 C 45.212 71.333 47.197 74.966 47.68 74.6 C 48.357 74.088 46.62 68.49 46.54 67.995 C 45.628 62.344 44.942 56.569 44.611 50.848 C 44.588 50.437 44.622 51.677 44.701 52.082 C 44.787 52.519 44.911 52.949 45.026 53.38 C 45.612 55.578 46.286 57.752 46.91 59.94 C 48.088 64.073 49.091 68.242 50.209 72.388 C 50.435 73.228 51.022 76.684 51.855 77.12 C 52.468 77.441 52.308 75.814 52.523 75.157 C 52.785 74.352 53.076 73.557 53.36 72.76 C 54.716 68.953 55.899 65.051 56.867 61.126 C 56.99 60.627 57.24 57.622 57.774 57.34 C 58.269 57.079 57.763 58.462 57.676 59.015 C 57.505 60.107 57.23 61.232 56.975 62.301 C 56.304 65.103 55.498 67.862 54.731 70.638 C 54.416 71.782 54.092 72.923 53.77 74.065 C 53.647 74.502 53.404 75.81 53.345 75.36 C 53.143 73.812 54.658 71.573 55.427 70.3 C 58.36 65.445 62.146 61.411 66.42 57.725 C 66.864 57.342 70.351 54.078 70.995 54.357 C 71.008 54.362 68.821 56.671 68.645 56.839 C 67.215 58.203 65.76 59.539 64.32 60.891 C 63.808 61.372 63.316 61.872 62.805 62.353 C 62.594 62.552 61.945 63.122 62.197 62.977 C 66.985 60.222 72.076 58.392 77.342 56.747 C 79.544 56.059 81.765 55.375 84.017 54.87 C 84.853 54.683 85.086 54.62 85.857 54.504 C 86.162 54.458 86.986 54.184 86.78 54.415 C 83.744 57.828 78.189 60.019 74.067 61.791 C 73.723 61.939 69.766 63.216 69.554 62.641 C 69.311 61.986 72.421 60.348 72.76 60.128 C 76.165 57.911 79.54 55.652 82.849 53.291 C 83.628 52.735 84.383 52.147 85.152 51.576 C 85.648 51.208 87.096 50.405 86.489 50.292 C 84.952 50.005 82.548 52.193 81.3 53.039 C 76.938 55.997 72.635 58.986 68.114 61.699 C 66.299 62.788 64.534 63.84 62.61 64.716 C 62.134 64.933 61.472 65.729 61.158 65.311 C 60.932 65.011 63.822 62.644 63.909 62.565 C 66.193 60.488 68.518 58.432 70.96 56.539 C 71.416 56.185 73.185 54.461 73.848 54.549 C 74.279 54.605 73.145 55.063 72.78 55.299 C 72.21 55.668 71.639 56.035 71.064 56.397 C 68.498 58.01 65.885 59.614 63.131 60.891 C 62.305 61.274 61.201 61.774 60.264 62.091 C 59.663 62.295 58.282 63.107 58.401 62.484 C 58.74 60.723 63.175 58.194 64.455 56.799 C 64.465 56.788 65.811 55.33 65.713 55.25 C 65.327 54.939 63.392 56.708 63.155 56.895 C 62.077 57.745 54.724 64.974 57.16 60.238 C 57.556 59.47 57.57 59.369 58.071 58.498 C 58.677 57.444 59.295 56.396 59.937 55.362 C 60.902 53.81 62 52.421 63.172 51.028 C 63.43 50.721 62.553 51.538 62.242 51.792 C 60.289 53.387 61.694 52.249 59.996 53.574 C 58.091 55.06 56.246 56.595 54.093 57.709 C 53.804 57.858 52.416 58.753 52.49 57.891 C 52.553 57.156 53.301 56.525 53.799 56.041 C 54.018 55.827 54.804 55.369 54.515 55.467 C 51.854 56.372 49.665 58.48 47.322 59.954 C 46.45 60.502 45.705 61.679 44.682 61.56 C 44.178 61.501 44.908 60.555 45.166 60.119 C 45.597 59.39 46.088 58.698 46.533 57.978 C 47.704 56.085 48.841 54.173 50.019 52.284 C 50.274 51.875 50.978 51.451 50.741 51.032 C 50.597 50.778 47.181 53.912 46.516 53.862 C 46.154 53.835 46.571 50.329 46.639 49.866 C 46.693 49.503 47.005 48.586 46.685 48.765 C 45.001 49.707 44.315 51.993 42.417 52.806 C 40.098 53.799 42.39 50.362 39.515 52.686 C 38.55 53.465 35.556 57.063 34.148 56.86 C 33.457 56.761 34.045 55.428 34.281 54.771 C 34.655 53.732 37.702 49.649 37.354 48.293 C 37.111 47.344 32.383 50.352 32.225 48.697 C 32.059 46.955 32.585 45.759 33.337 44.214 C 33.657 43.557 34.889 41.739 34.455 42.327 C 34.154 42.733 32.607 44.272 31.916 43.578 C 31.629 43.29 31.984 41.688 31.571 41.788 C 31.397 41.83 28.692 44.081 28.562 43.346 C 28.272 41.712 29.809 37.081 28.969 35.864 C 28.9 35.764 26.443 37.559 26.126 37.688 C 23.432 38.787 23.198 36.171 23.198 33.973 C 23.198 33.5 23.26 34.94 23.464 35.367 C 23.708 35.88 24.239 36.652 24.557 37.063 C 26.255 39.258 28.23 41.275 30.048 43.366 C 33.412 47.237 37.075 51.24 39.531 55.774 C 42.133 60.579 42.915 65.866 46.063 70.413 C 46.727 71.372 50.337 77.221 52.046 76.807 C 52.676 76.655 52.326 72.381 52.348 72.009 C 52.535 68.935 53.01 65.822 53.624 62.806 C 53.715 62.36 54.041 59.736 54.679 59.563 C 55.164 59.432 54.204 60.463 54.09 60.953 C 53.839 62.033 53.608 63.081 53.249 64.13 C 52.871 65.239 53.124 64.454 52.864 65.451 C 52.789 65.74 52.6 66.602 52.6 66.305 C 52.6 63.274 55.847 58.787 57.063 56.171 C 57.544 55.137 58.035 54.108 58.575 53.104 C 58.786 52.71 59.174 51.53 59.281 51.964 C 59.742 53.832 56.668 58.227 56.038 59.66 C 54.369 63.452 53.603 67.309 53.29 71.392 C 53.266 71.695 53.239 70.782 53.289 70.483 C 53.453 69.489 53.916 68.654 54.346 67.742 C 55.909 64.428 57.706 61.084 59.891 58.132 C 59.954 58.047 61.578 55.747 61.939 55.957 C 62.693 56.397 60.105 59.858 59.915 60.137 C 57.601 63.542 55.471 66.942 53.861 70.74 C 53.104 72.524 53.024 74.47 52.886 76.374 C 52.84 77.015 52.834 77.654 52.832 78.297 C 52.832 78.615 52.826 79.567 52.826 79.25 C 52.826 76.12 55.761 72.299 57.166 69.774 C 60.405 63.954 63.339 56.966 67.495 51.747 C 68.868 50.022 70.761 48.653 72.682 47.608 C 73.207 47.322 74.947 46.716 75.128 46.01 C 75.283 45.402 74.312 46.961 73.91 47.442 C 73.297 48.174 72.636 48.863 72.004 49.578 C 70.041 51.8 67.978 53.93 65.986 56.127 C 65.44 56.729 64.853 57.291 64.291 57.879 C 63.999 58.185 63.118 59.087 63.461 58.84 C 66.714 56.5 70.786 54.106 74.914 53.973 C 75.302 53.96 74.136 53.969 73.747 53.968 C 73.19 53.968 72.209 53.953 71.698 54.024 C 71.253 54.087 65.221 55.544 65.242 56.276 C 65.271 57.259 67.204 55.997 68.126 55.657 C 70.524 54.773 72.928 53.928 75.391 53.231 C 76.241 52.991 77.141 52.78 78.014 52.644 C 78.451 52.575 79.784 52.597 79.341 52.597 C 75.692 52.597 72.116 52.917 68.488 53.277 C 67.265 53.398 64.395 53.183 63.354 54.031 C 62.931 54.376 64.448 53.965 64.98 53.844 C 67.458 53.285 64.907 53.785 67.949 53.169 C 72.525 52.241 77.154 51.748 81.82 51.627 C 82.013 51.622 86.595 51.614 86.593 51.636 C 86.593 51.642 80.601 52.526 80.504 52.544 C 73.287 53.914 66.04 55.142 58.704 55.643 C 56.25 55.811 53.8 55.829 51.342 55.839 C 50.394 55.843 49.439 55.841 48.492 55.841 C 47.862 55.841 45.972 55.841 46.602 55.841 C 53.104 55.841 59.534 54.741 66.052 54.704 C 68.001 54.692 69.971 54.536 71.873 55.02 C 72.502 55.18 73.129 55.304 73.761 55.453 C 74.195 55.556 75.51 55.767 75.063 55.767 C 68.993 55.767 62.478 57.775 56.883 59.977 C 56.034 60.311 51.529 61.601 51.118 62.873 C 51.072 63.018 54.167 62.902 54.176 62.901 C 55.976 62.788 57.76 62.726 59.564 62.72 C 60.065 62.718 60.565 62.718 61.065 62.718 C 61.351 62.717 62.202 62.675 61.923 62.741 C 59.142 63.404 56.505 61.573 54.313 60.172 C 49.066 56.821 44.538 52.677 40.087 48.349 C 38.56 46.864 37.135 45.278 35.592 43.812 C 35.356 43.588 33.701 42.374 33.711 41.907 C 33.722 41.36 38.052 43.365 38.157 43.421 C 40.66 44.754 42.666 46.401 44.644 48.407 C 44.832 48.597 46.526 49.996 46.438 50.38 C 46.419 50.461 43.136 48.422 43.085 48.39 C 40.933 47.064 38.828 45.613 36.56 44.486 C 35.485 43.953 35.191 43.81 34.311 43.469 C 34.229 43.437 32.95 42.838 33.071 43.398 C 34.223 48.705 39.528 54.731 42.488 59.13 C 43.285 60.314 44.133 61.468 44.934 62.651 C 44.935 62.652 46.531 64.977 46.521 64.981 C 45.441 65.414 42.383 60.955 42.136 60.609 C 39.383 56.75 37.436 52.441 34.465 48.712 C 33.766 47.836 32.984 46.275 31.946 45.722 C 31.604 45.54 32.329 46.397 32.524 46.732 C 33.009 47.566 33.348 48.219 33.76 49.112 C 34.651 51.049 35.433 53.026 36.15 55.033 C 37.545 58.934 38.833 62.873 40.282 66.754 C 40.712 67.905 41.12 70.176 42.027 71.077 C 42.254 71.302 41.913 70.433 41.747 70.161 C 41.362 69.529 41.003 69.09 40.557 68.486 C 38.838 66.156 37 63.919 35.777 61.271 C 35.359 60.366 34.941 59.431 34.569 58.505 C 34.433 58.165 34.02 57.27 34.349 57.429 C 35.287 57.883 37.033 62.527 37.474 63.36 C 39.879 67.903 42.306 72.366 44.977 76.759 C 45.263 77.229 48.208 82.771 48.917 82.613 C 49.031 82.588 48.913 81.446 48.907 81.406 C 48.631 79.453 48.42 77.613 48.344 75.629 C 48.167 71.005 48.152 66.387 48.146 61.76 C 48.143 59.617 48.143 57.474 48.142 55.331 C 48.141 54.513 48.141 53.696 48.14 52.878 C 48.14 52.586 48.093 51.718 48.164 52.001 C 49.78 58.427 49.575 66.067 50.093 72.654 C 50.208 74.12 49.746 78.761 50.687 79.987 C 51.116 80.546 51.098 78.641 51.321 77.973 C 51.846 76.4 53.039 73.179 53.58 71.798 C 55.124 67.86 56.79 63.92 58.543 60.077 C 59.012 59.049 59.791 58.056 60.421 57.126 C 60.447 57.087 61.854 55.38 61.827 55.52 C 61.621 56.599 60.333 57.649 59.7 58.481 C 57.583 61.263 55.893 64.322 54.272 67.407 C 53.9 68.114 52.967 69.457 52.992 70.322 C 52.999 70.545 53.449 69.897 53.605 69.738 C 54.557 68.764 55.042 68.285 56.104 67.341 C 57.572 66.037 59.217 64.657 60.75 63.446 C 65.03 60.064 69.425 56.892 74.128 54.139 C 74.846 53.719 78.529 51.94 78.719 50.987 C 78.88 50.181 77.301 51.822 76.603 52.258 C 75.282 53.082 73.941 53.803 72.551 54.501 C 71.799 54.879 69.511 55.413 70.312 55.671 C 71.309 55.993 74.493 55.01 75.347 54.424 C 75.737 54.157 74.401 54.394 73.929 54.424 C 73.476 54.452 73.024 54.5 72.575 54.569 C 70.59 54.872 68.619 55.329 66.646 55.699 C 60.953 56.767 53.725 58.104 47.957 56.842 C 44.692 56.128 42.036 53.628 40.398 50.822 C 39.789 49.779 39.107 46.867 38.133 46.174 C 37.601 45.796 38.457 47.442 38.671 48.059 C 39.465 50.336 39.058 49.025 39.913 51.595 C 41.036 54.971 42.199 58.236 43.735 61.447 C 43.745 61.468 44.87 63.769 44.963 63.706 C 45.567 63.304 43.912 61.013 43.784 60.798 C 41.979 57.763 40.041 54.783 38.622 51.537 C 38.511 51.284 38.875 52.028 39.016 52.266 C 39.26 52.678 39.52 53.081 39.772 53.489 C 40.233 54.235 40.698 54.978 41.155 55.727 C 43.033 58.805 44.883 61.884 46.921 64.862 C 47.757 66.083 48.613 67.293 49.427 68.529 C 50.102 69.556 49.807 69.179 50.356 69.908 C 50.497 70.095 50.928 70.64 50.745 70.494 C 47.378 67.802 44.788 64.026 41.61 61.104 C 38.802 58.524 34.934 56.137 33.44 52.552 C 33.292 52.197 33.673 53.286 33.848 53.628 C 34.245 54.401 34.73 55.172 35.235 55.881 C 35.493 56.243 36.201 57.342 36.072 56.917 C 34.737 52.518 32.551 48.042 30.92 43.691 C 30.507 42.589 29.253 40.353 29.552 39.066 C 29.617 38.788 29.665 39.631 29.772 39.896 C 30.087 40.678 30.563 41.596 30.945 42.365 C 31.792 44.076 32.698 45.755 33.544 47.465 C 33.915 48.215 34.256 48.979 34.614 49.736 C 34.752 50.028 35.209 50.848 34.961 50.641 C 31.341 47.613 28.835 43.355 25.391 40.224 C 24.957 39.829 25.913 41.275 26.225 41.771 C 27.04 43.064 27.893 44.327 28.728 45.607 C 29.115 46.199 29.571 48.02 29.886 47.386 C 30.254 46.646 28.33 44.206 28.003 43.631 C 26.544 41.067 25.151 38.453 23.643 35.919 C 23.373 35.465 22.247 34.113 22.323 33.421 C 22.324 33.414 23.779 34.365 23.941 34.461 C 24.149 34.584 26.109 35.258 26.121 35.486 C 26.132 35.7 23.699 35.103 23.508 35.068 C 23.043 34.983 18.868 33.963 18.968 33.551 C 19.155 32.78 20.585 33.841 21.223 34.312 C 23.548 36.03 26.312 40.491 29.122 41.362 C 29.546 41.493 28.487 40.738 28.138 40.464 C 27.272 39.784 26.42 39.083 25.592 38.356 C 25.187 38 23.98 36.938 24.443 37.216 C 26.386 38.385 27.961 41.069 29.2 42.938"/>
</svg>