<svg xmlns="http://www.w3.org/2000/svg" viewBox="0 0 32 32">
  <path d="M16 6 C16 4 18 3 19 4 C18 5 17 5 17 6Z" fill="#4CAF50"/>
  <path d="M17 6 C19 5 21 6 20 8 C19 7 18 7 17 6Z" fill="#4CAF50"/>
  <rect x="15" y="4" width="2" height="4" rx="1" fill="#388E3C"/>
  <path d="M10 10 C8 10 6 13 6 16 C6 21 10 26 16 26 C22 26 26 21 26 16 C26 13 24 10 22 10 C20 8 18 8 16 8 C14 8 12 8 10 10Z" fill="#E53935"/>
  <path d="M10 12 C9 14 9 18 11 21" stroke="#EF9A9A" stroke-width="1.5" stroke-linecap="round"/>
  <path d="M14 9 C14 9 13 11 14 13" stroke="#EF9A9A" stroke-width="1" stroke-linecap="round"/>
</svg>
